# xmcd
#
# Track frame offsets: 
#        150
#        32224
#        51804
#        73905
#        88804
#        113597
#        126954
#        143775
#
# Disc length: 2428 seconds
#
# Revision: 0
# Processed by: cddbd v1.5.2PL0 Copyright (c) Steve Scherf et al.
# Submitted via: ExactAudioCopy v1.0b4
#
DISCID=73097a08
DTITLE=Eddie 'Cleanhead' Vinson -  Eddie "Cleanhead" Vinson Sings The 
DTITLE=Blues 
DYEAR=1985
DGENRE=Blues
TTITLE0=Hold It Right There
TTITLE1=Past Sixty Blues
TTITLE2=When My Baby Left Me
TTITLE3=He Was A Friend Of Mine
TTITLE4=Cleanhead Blues
TTITLE5=Old Maid Boogie
TTITLE6=Cherry Red
TTITLE7=High Class Baby
EXTD=
EXTT0=
EXTT1=
EXTT2=
EXTT3=
EXTT4=
EXTT5=
EXTT6=
EXTT7=
PLAYORDER=
